<?xml version="1.0"?>
<svg xmlns="http://www.w3.org/2000/svg" height="512px" viewBox="-96 0 480 480" width="512px" class=""><g><path d="m248 8h-208c-17.671875 0-32 14.328125-32 32v16h272v-16c0-17.671875-14.328125-32-32-32zm-112 24" fill="#9bc9ff" data-original="#9BC9FF" class="active-path" style="fill:#A2D3C2" data-old_color="#E3E5E6"/><path d="m96 323.199219v-27.199219c0-26.507812 21.492188-48 48-48 26.492188.039062 47.960938 21.507812 48 48v27.199219c23.847656-13.796875 40.628906-37.160157 46.089844-64.164063 5.460937-27.003906-.921875-55.054687-17.53125-77.035156-4.054688 1.316406-8.292969 1.992188-12.558594 2-20.867188-.019531-38.210938-16.078125-39.839844-36.878906-7.882812-2.101563-16.003906-3.148438-24.160156-3.121094-43.492188-.046875-81.585938 29.148438-92.839844 71.160156-11.25 42.011719 7.144532 86.339844 44.839844 108.039063zm48-139.199219c13.253906 0 24 10.746094 24 24s-10.746094 24-24 24-24-10.746094-24-24 10.746094-24 24-24zm0 0" fill="#9bc9ff" data-original="#9BC9FF" class="active-path" style="fill:#A2D3C2" data-old_color="#E3E5E6"/><path d="m8 424v16c0 17.671875 14.328125 32 32 32h208c17.671875 0 32-14.328125 32-24v-24zm0 0" fill="#9bc9ff" data-original="#9BC9FF" class="active-path" style="fill:#A2D3C2" data-old_color="#E3E5E6"/><g fill="#1e81ce"><path d="m248 0h-208c-22.082031.0273438-39.9726562 17.917969-40 40v400c.0273438 22.082031 17.917969 39.972656 40 40h208c22.082031-.027344 39.972656-17.917969 40-40v-400c-.027344-22.082031-17.917969-39.9726562-40-40zm-208 16h208c13.253906 0 24 10.746094 24 24v8h-256v-8c0-13.253906 10.746094-24 24-24zm208 448h-208c-13.253906 0-24-10.746094-24-24v-8h104v-16h-104v-352h256v352h-104v16h104v8c0 13.253906-10.746094 24-24 24zm0 0" data-original="#000000" class="" style="fill:#000000"/><path d="m136 416h16v16h-16zm0 0" data-original="#000000" class="" style="fill:#000000"/><path d="m136 24h16v16h-16zm0 0" data-original="#000000" class="" style="fill:#000000"/><path d="m176 208c0-17.671875-14.328125-32-32-32s-32 14.328125-32 32 14.328125 32 32 32 32-14.328125 32-32zm-32 16c-8.835938 0-16-7.164062-16-16s7.164062-16 16-16 16 7.164062 16 16-7.164062 16-16 16zm0 0" data-original="#000000" class="" style="fill:#000000"/><path d="m196 330.128906 4-2.3125v-.183594c29.847656-19.160156 47.925781-52.164062 48-87.632812.046875-19.367188-5.355469-38.359375-15.59375-54.800781 19.273438-11.398438 28.089844-34.617188 21.238281-55.933594-6.847656-21.320313-27.542969-35.054687-49.847656-33.089844-22.304687 1.960938-40.28125 19.101563-43.300781 41.289063-5.449219-.933594-10.96875-1.421875-16.496094-1.464844-46.199219.003906-86.859375 30.484375-99.820312 74.828125-12.957032 44.347656 4.890624 91.925781 43.820312 116.804687v.183594l4 2.3125c32.203125 18.488282 71.796875 18.488282 104 0zm-76.542969-5.792968c-2.695312-.761719-5.351562-1.601563-8-2.632813-1.175781-.457031-2.320312-.992187-3.472656-1.503906-1.367187-.597657-2.695313-1.289063-4-1.96875v-22.230469c.027344-22.082031 17.917969-39.972656 40-40 22.074219.039062 39.960937 17.925781 40 40v22.230469c-1.335937.679687-2.664063 1.371093-4 1.96875-1.152344.511719-2.296875 1.046875-3.472656 1.503906-2.609375 1.015625-5.265625 1.871094-7.960938 2.632813-.796875.214843-1.527343.480468-2.292969.671874-14.605468 3.648438-29.878906 3.648438-44.480468 0-.785156-.207031-1.546875-.457031-2.3125-.671874zm88.542969-212.335938c15.746094-.066406 29.199219 11.332031 31.722656 26.871094 2.523438 15.542968-6.636718 30.613281-21.59375 35.527344-3.273437 1.0625-6.691406 1.601562-10.128906 1.601562-2.042969.003906-4.078125-.195312-6.078125-.59375-14.089844-2.796875-24.613281-14.597656-25.785156-28.910156-.066407-.847656-.136719-1.695313-.136719-2.496094 0-17.671875 14.328125-32 32-32zm-152 128c.058594-48.578125 39.421875-87.941406 88-88 5.710938-.011719 11.414062.539062 17.015625 1.648438.046875.222656.144531.414062.191406.640624.523438 2.417969 1.234375 4.792969 2.128907 7.101563.078124.21875.183593.425781.273437.640625.945313 2.324219 2.074219 4.570312 3.367187 6.722656l.101563.183594c1.3125 2.113281 2.785156 4.121094 4.410156 6.007812.191407.222657.359375.460938.558594.679688 1.574219 1.773438 3.277344 3.429688 5.097656 4.949219.289063.257812.574219.503906.878907.746093 1.820312 1.46875 3.742187 2.808594 5.753906 4 .351562.207032.695312.40625 1.054687.601563 2.054688 1.15625 4.191407 2.15625 6.398438 2.988281.34375.136719.699219.25 1.042969.371094 2.308593.824219 4.675781 1.464844 7.085937 1.917969.25.046875.503906.074219.761719.113281 4.839844.882812 9.796875.933594 14.65625.160156.4375-.066406.871094-.113281 1.3125-.191406.4375-.082031.757812-.089844 1.132812-.160156 9.6875 14.457031 14.832032 31.476562 14.777344 48.878906-.085938 26.207031-11.808594 51.019531-32 67.726562v-11.726562c-.039062-30.910156-25.089844-55.960938-56-56-30.910156.039062-55.960938 25.089844-56 56v11.726562c-20.191406-16.707031-31.914062-41.519531-32-67.726562zm0 0" data-original="#000000" class="" style="fill:#000000"/><path d="m200 168h16v-16h16v-16h-16v-16h-16v16h-16v16h16zm0 0" data-original="#000000" class="" style="fill:#000000"/></g></g> </svg>
