<?xml version="1.0" encoding="iso-8859-1"?>
<!-- Generator: Adobe Illustrator 19.0.0, SVG Export Plug-In . SVG Version: 6.00 Build 0)  -->
<svg version="1.1" id="Capa_1" xmlns="http://www.w3.org/2000/svg" xmlns:xlink="http://www.w3.org/1999/xlink" x="0px" y="0px"
	 viewBox="0 0 480.002 480.002" style="enable-background:new 0 0 480.002 480.002;" xml:space="preserve">
<g>
	<g>
		<path d="M80.006,328.002c-0.001,0-0.003,0-0.004,0h-64c-4.417-0.001-7.999,3.579-8,7.996c0,0.001,0,0.003,0,0.004v136
			c-0.001,4.417,3.579,7.999,7.996,8c0.001,0,0.003,0,0.004,0h64c4.417,0.001,7.999-3.579,8-7.996c0-0.001,0-0.003,0-0.004v-136
			C88.003,331.585,84.423,328.003,80.006,328.002z M72.001,464.002h-48v-120h48V464.002z"/>
	</g>
</g>
<g>
	<g>
		<path d="M368.006,264.002c-0.001,0-0.003,0-0.004,0h-64c-4.417-0.001-7.999,3.579-8,7.996c0,0.001,0,0.003,0,0.004v200
			c-0.001,4.417,3.579,7.999,7.996,8c0.001,0,0.003,0,0.004,0h64c4.417,0.001,7.999-3.579,8-7.996c0-0.001,0-0.003,0-0.004v-200
			C376.003,267.585,372.423,264.003,368.006,264.002z M360.001,464.002h-48v-184h48V464.002z"/>
	</g>
</g>
<g>
	<g>
		<path d="M272.006,304.002c-0.001,0-0.003,0-0.004,0h-64c-4.417-0.001-7.999,3.579-8,7.996c0,0.001,0,0.003,0,0.004v160
			c-0.001,4.417,3.579,7.999,7.996,8c0.001,0,0.003,0,0.004,0h64c4.417,0.001,7.999-3.579,8-7.996c0-0.001,0-0.003,0-0.004v-160
			C280.003,307.585,276.423,304.003,272.006,304.002z M264.001,464.002h-48v-144h48V464.002z"/>
	</g>
</g>
<g>
	<g>
		<path d="M176.006,208.002c-0.001,0-0.003,0-0.004,0h-64c-4.417-0.001-7.999,3.579-8,7.996c0,0.001,0,0.003,0,0.004v256
			c-0.001,4.417,3.579,7.999,7.996,8c0.001,0,0.003,0,0.004,0h64c4.417,0.001,7.999-3.579,8-7.996c0-0.001,0-0.003,0-0.004v-256
			C184.003,211.585,180.423,208.003,176.006,208.002z M168.001,464.002h-48v-240h48V464.002z"/>
	</g>
</g>
<g>
	<g>
		<path d="M464.006,368.002c-0.001,0-0.003,0-0.004,0h-64c-4.417-0.001-7.999,3.579-8,7.996c0,0.001,0,0.003,0,0.004v96
			c-0.001,4.417,3.579,7.999,7.996,8c0.001,0,0.003,0,0.004,0h64c4.417,0.001,7.999-3.579,8-7.996c0-0.001,0-0.003,0-0.004v-96
			C472.003,371.585,468.423,368.003,464.006,368.002z M456.001,464.002h-48v-80h48V464.002z"/>
	</g>
</g>
<g>
	<g>
		<path d="M478.077,175.371c-0.506-0.591-1.096-1.105-1.751-1.525l-32-20.57c-3.713-2.39-8.661-1.318-11.052,2.395
			c-0.831,1.292-1.273,2.795-1.273,4.331v16h-27.719l-61.625-92.438c-2.741-3.676-7.943-4.434-11.619-1.693
			c-0.643,0.48-1.214,1.05-1.693,1.693l-87.808,131.711L151.353,4.854c-1.251-3.003-4.217-4.93-7.469-4.852
			c-3.245,0.045-6.139,2.049-7.324,5.07L34.556,264.002H0.001v16h40c3.287,0.001,6.24-2.011,7.441-5.07l96.871-245.891
			l88.336,206.109c1.735,4.061,6.433,5.946,10.494,4.211c1.431-0.611,2.652-1.627,3.514-2.922l89.344-134.016l57.344,86.016
			c1.483,2.226,3.981,3.563,6.656,3.562h32v16c-0.001,4.417,3.578,7.999,7.995,8c1.912,0.001,3.761-0.684,5.212-1.93l32-27.43
			C480.561,183.77,480.95,178.723,478.077,175.371z M448.001,190.612v-15.953l10.637,6.836L448.001,190.612z"/>
	</g>
</g>
<g>
</g>
<g>
</g>
<g>
</g>
<g>
</g>
<g>
</g>
<g>
</g>
<g>
</g>
<g>
</g>
<g>
</g>
<g>
</g>
<g>
</g>
<g>
</g>
<g>
</g>
<g>
</g>
<g>
</g>
</svg>
