<svg height="479pt" viewBox="-104 0 479 479.928" width="479pt" xmlns="http://www.w3.org/2000/svg"><path d="m263.03125 201.433594c-6.554688-6.5625-15.644531-9.949219-24.894531-9.28125-5.585938.441406-10.9375 2.410156-15.480469 5.6875-3.132812-9.476563-10.53125-16.9375-19.984375-20.148438-9.449219-3.210937-19.859375-1.800781-28.121094 3.804688-3.046875-9.042969-10.019531-16.222656-18.96875-19.53125-8.953125-3.3125-18.917969-2.398438-27.117187 2.484375v-68.449219c0-17.671875-14.328125-32-32-32-17.675782 0-32 14.328125-32 32v96.070312h-8c-22.035156.042969-39.890625 17.894532-39.929688 39.929688v54.398438c-.039062 39.074218 7.695313 77.765624 22.761719 113.816406l10.464844 25.113281c4.484375 10.730469 6.789062 22.242187 6.773437 33.871094v12.800781c0 4.378906 3.550782 7.929688 7.929688 7.929688h160c4.378906 0 7.925781-3.550782 7.925781-7.929688v-12.800781c-.011719-11.628907 2.292969-23.140625 6.777344-33.871094l10.464843-25.113281c15.0625-36.050782 22.800782-74.742188 22.757813-113.816406v-62.398438c.015625-8.46875-3.351563-16.59375-9.359375-22.566406zm-6.496094 84.964844c.039063 36.984374-7.285156 73.601562-21.550781 107.722656l-10.457031 25.078125c-5.296875 12.671875-8.015625 26.269531-8 40v4.871093h-144.136719v-4.871093c.015625-13.730469-2.703125-27.328125-8-40l-10.453125-25.101563c-14.261719-34.113281-21.582031-70.726562-21.546875-107.699218v-54.398438c.019531-13.289062 10.785156-24.054688 24.074219-24.070312h8l.070312 96.070312c0 4.378906 3.550782 7.929688 7.929688 7.929688s7.925781-3.550782 7.925781-7.929688l.074219-208c0-8.835938 7.164062-16 16-16 8.835937 0 16 7.164062 16 16v168c0 4.417969 3.582031 8 8 8 4.417968 0 8-3.582031 8-8v-72c0-8.835938 7.164062-16 16-16 8.835937 0 16 7.164062 16 16v72c0 4.417969 3.582031 8 8 8 4.417968 0 8-3.582031 8-8v-56c0-8.835938 7.164062-16 16-16 8.835937 0 16 7.164062 16 16v56c0 4.417969 3.582031 8 8 8 4.417968 0 8-3.582031 8-8v-39.40625c.132812-8.445312 6.441406-15.511719 14.816406-16.59375 4.449219-.320312 8.828125 1.222656 12.101562 4.253906 3.269532 3.03125 5.136719 7.285156 5.152344 11.746094zm0 0"/><path d="m96.464844 48c4.417968 0 8-3.582031 8-8v-32c0-4.417969-3.582032-8-8-8-4.417969 0-8 3.582031-8 8v32c0 4.417969 3.582031 8 8 8zm0 0"/><path d="m61.535156 51.503906c1.417969 2.496094 4.066406 4.039063 6.9375 4.046875 2.871094.003907 5.523438-1.527343 6.953125-4.015625 1.433594-2.488281 1.417969-5.554687-.035156-8.03125l-16-27.710937c-1.417969-2.496094-4.066406-4.039063-6.9375-4.046875-2.867187-.007813-5.523437 1.527344-6.953125 4.015625s-1.414062 5.554687.035156 8.03125zm0 0"/><path d="m16.257812 58.929688 27.703126 16c2.476562 1.449218 5.539062 1.464843 8.03125.035156 2.488281-1.429688 4.019531-4.085938 4.015624-6.957032-.007812-2.871093-1.550781-5.515624-4.046874-6.9375l-27.703126-16c-2.476562-1.449218-5.542968-1.464843-8.03125-.035156-2.492187 1.429688-4.023437 4.085938-4.015624 6.957032.003906 2.871093 1.550781 5.515624 4.046874 6.9375zm0 0"/><path d="m48.464844 96c0-4.417969-3.582032-8-8-8h-32c-4.417969 0-8 3.582031-8 8s3.582031 8 8 8h32c4.417968 0 8-3.582031 8-8zm0 0"/><path d="m144.464844 96c0 4.417969 3.582031 8 8 8h32c4.417968 0 8-3.582031 8-8s-3.582032-8-8-8h-32c-4.417969 0-8 3.582031-8 8zm0 0"/><path d="m138.0625 72c2.210938 3.824219 7.101562 5.136719 10.929688 2.929688l27.710937-16c2.496094-1.421876 4.039063-4.066407 4.046875-6.9375.007812-2.871094-1.527344-5.527344-4.015625-6.957032-2.488281-1.429687-5.554687-1.414062-8.03125.035156l-27.710937 16c-3.828126 2.210938-5.136719 7.101563-2.929688 10.929688zm0 0"/><path d="m120.464844 54.398438c3.824218 2.210937 8.71875.898437 10.925781-2.925782l16-27.710937c1.453125-2.476563 1.46875-5.542969.035156-8.03125-1.429687-2.492188-4.082031-4.023438-6.953125-4.015625-2.871094.003906-5.519531 1.550781-6.9375 4.046875l-16 27.710937c-2.207031 3.824219-.898437 8.71875 2.929688 10.925782zm0 0"/></svg>